<mxfile host="app.diagrams.net" agent="Mozilla/5.0 (Macintosh; Intel Mac OS X 10_15_7) AppleWebKit/605.1.15 (KHTML, like Gecko) Version/18.6 Safari/605.1.15" version="28.2.8">
  <diagram id="A1RBuz1T2mIyK1eWtsOE" name="Page-2">
    <mxGraphModel dx="1697" dy="1162" grid="1" gridSize="10" guides="1" tooltips="1" connect="1" arrows="1" fold="1" page="1" pageScale="1" pageWidth="827" pageHeight="1169" math="0" shadow="0">
      <root>
        <mxCell id="0" />
        <mxCell id="1" parent="0" />
        <mxCell id="ZMhzhqFESCD0y0pfr6QD-1" value="Boundary Layer" style="whiteSpace=wrap;strokeWidth=3;verticalAlign=top;fillColor=#dae8fc;strokeColor=#6c8ebf;gradientColor=#7ea6e0;fontStyle=1" vertex="1" parent="1">
          <mxGeometry x="20" y="20" width="360" height="3275" as="geometry" />
        </mxCell>
        <mxCell id="ZMhzhqFESCD0y0pfr6QD-2" value="Control Layer" style="whiteSpace=wrap;strokeWidth=3;verticalAlign=top;fillColor=#d5e8d4;gradientColor=#97d077;strokeColor=#82b366;fontStyle=1" vertex="1" parent="1">
          <mxGeometry x="440" y="20" width="682" height="3275" as="geometry" />
        </mxCell>
        <mxCell id="ZMhzhqFESCD0y0pfr6QD-3" value="Entity Layer" style="whiteSpace=wrap;strokeWidth=3;verticalAlign=top;fillColor=#e6d0de;gradientColor=#d5739d;strokeColor=#996185;fontStyle=1" vertex="1" parent="1">
          <mxGeometry x="1182" y="20" width="1000" height="3275" as="geometry" />
        </mxCell>
        <mxCell id="ZMhzhqFESCD0y0pfr6QD-4" value="CompanyRepUI" style="shape=umlLifeline;perimeter=lifelinePerimeter;whiteSpace=wrap;container=1;dropTarget=0;collapsible=0;recursiveResize=0;outlineConnect=0;portConstraint=eastwest;newEdgeStyle={&quot;edgeStyle&quot;:&quot;elbowEdgeStyle&quot;,&quot;elbow&quot;:&quot;vertical&quot;,&quot;curved&quot;:0,&quot;rounded&quot;:0};size=65;fontStyle=1;strokeWidth=3;" vertex="1" parent="1">
          <mxGeometry x="25" y="45" width="150" height="3250" as="geometry" />
        </mxCell>
        <mxCell id="ZMhzhqFESCD0y0pfr6QD-5" value="StudentUI" style="shape=umlLifeline;perimeter=lifelinePerimeter;whiteSpace=wrap;container=1;dropTarget=0;collapsible=0;recursiveResize=0;outlineConnect=0;portConstraint=eastwest;newEdgeStyle={&quot;edgeStyle&quot;:&quot;elbowEdgeStyle&quot;,&quot;elbow&quot;:&quot;vertical&quot;,&quot;curved&quot;:0,&quot;rounded&quot;:0};size=65;fontStyle=1;strokeWidth=3;" vertex="1" parent="1">
          <mxGeometry x="225" y="45" width="150" height="3250" as="geometry" />
        </mxCell>
        <mxCell id="ZMhzhqFESCD0y0pfr6QD-6" value="CareerCenterController" style="shape=umlLifeline;perimeter=lifelinePerimeter;whiteSpace=wrap;container=1;dropTarget=0;collapsible=0;recursiveResize=0;outlineConnect=0;portConstraint=eastwest;newEdgeStyle={&quot;edgeStyle&quot;:&quot;elbowEdgeStyle&quot;,&quot;elbow&quot;:&quot;vertical&quot;,&quot;curved&quot;:0,&quot;rounded&quot;:0};size=65;fontStyle=1;strokeWidth=3;" vertex="1" parent="1">
          <mxGeometry x="445" y="45" width="181" height="3250" as="geometry" />
        </mxCell>
        <mxCell id="ZMhzhqFESCD0y0pfr6QD-7" value="InternshipController" style="shape=umlLifeline;perimeter=lifelinePerimeter;whiteSpace=wrap;container=1;dropTarget=0;collapsible=0;recursiveResize=0;outlineConnect=0;portConstraint=eastwest;newEdgeStyle={&quot;edgeStyle&quot;:&quot;elbowEdgeStyle&quot;,&quot;elbow&quot;:&quot;vertical&quot;,&quot;curved&quot;:0,&quot;rounded&quot;:0};size=65;fontStyle=1;strokeWidth=3;" vertex="1" parent="1">
          <mxGeometry x="746" y="45" width="156" height="3250" as="geometry" />
        </mxCell>
        <mxCell id="ZMhzhqFESCD0y0pfr6QD-8" value="ApplicationController" style="shape=umlLifeline;perimeter=lifelinePerimeter;whiteSpace=wrap;container=1;dropTarget=0;collapsible=0;recursiveResize=0;outlineConnect=0;portConstraint=eastwest;newEdgeStyle={&quot;edgeStyle&quot;:&quot;elbowEdgeStyle&quot;,&quot;elbow&quot;:&quot;vertical&quot;,&quot;curved&quot;:0,&quot;rounded&quot;:0};size=65;fontStyle=1;strokeWidth=3;" vertex="1" parent="1">
          <mxGeometry x="952" y="45" width="165" height="3250" as="geometry" />
        </mxCell>
        <mxCell id="ZMhzhqFESCD0y0pfr6QD-9" value="CompanyRepresentative" style="shape=umlLifeline;perimeter=lifelinePerimeter;whiteSpace=wrap;container=1;dropTarget=0;collapsible=0;recursiveResize=0;outlineConnect=0;portConstraint=eastwest;newEdgeStyle={&quot;edgeStyle&quot;:&quot;elbowEdgeStyle&quot;,&quot;elbow&quot;:&quot;vertical&quot;,&quot;curved&quot;:0,&quot;rounded&quot;:0};size=65;fontStyle=1;strokeWidth=3;" vertex="1" parent="1">
          <mxGeometry x="1187" y="45" width="190" height="3250" as="geometry" />
        </mxCell>
        <mxCell id="ZMhzhqFESCD0y0pfr6QD-10" value="CareerCenter" style="shape=umlLifeline;perimeter=lifelinePerimeter;whiteSpace=wrap;container=1;dropTarget=0;collapsible=0;recursiveResize=0;outlineConnect=0;portConstraint=eastwest;newEdgeStyle={&quot;edgeStyle&quot;:&quot;elbowEdgeStyle&quot;,&quot;elbow&quot;:&quot;vertical&quot;,&quot;curved&quot;:0,&quot;rounded&quot;:0};size=65;fontStyle=1;strokeWidth=3;" vertex="1" parent="1">
          <mxGeometry x="1427" y="45" width="150" height="3250" as="geometry" />
        </mxCell>
        <mxCell id="ZMhzhqFESCD0y0pfr6QD-11" value="Internship" style="shape=umlLifeline;perimeter=lifelinePerimeter;whiteSpace=wrap;container=1;dropTarget=0;collapsible=0;recursiveResize=0;outlineConnect=0;portConstraint=eastwest;newEdgeStyle={&quot;edgeStyle&quot;:&quot;elbowEdgeStyle&quot;,&quot;elbow&quot;:&quot;vertical&quot;,&quot;curved&quot;:0,&quot;rounded&quot;:0};size=65;fontStyle=1;strokeWidth=3;" vertex="1" parent="1">
          <mxGeometry x="1627" y="45" width="150" height="3250" as="geometry" />
        </mxCell>
        <mxCell id="ZMhzhqFESCD0y0pfr6QD-12" value="Application" style="shape=umlLifeline;perimeter=lifelinePerimeter;whiteSpace=wrap;container=1;dropTarget=0;collapsible=0;recursiveResize=0;outlineConnect=0;portConstraint=eastwest;newEdgeStyle={&quot;edgeStyle&quot;:&quot;elbowEdgeStyle&quot;,&quot;elbow&quot;:&quot;vertical&quot;,&quot;curved&quot;:0,&quot;rounded&quot;:0};size=65;fontStyle=1;strokeWidth=3;" vertex="1" parent="1">
          <mxGeometry x="1827" y="45" width="150" height="3250" as="geometry" />
        </mxCell>
        <mxCell id="ZMhzhqFESCD0y0pfr6QD-13" value="Student" style="shape=umlLifeline;perimeter=lifelinePerimeter;whiteSpace=wrap;container=1;dropTarget=0;collapsible=0;recursiveResize=0;outlineConnect=0;portConstraint=eastwest;newEdgeStyle={&quot;edgeStyle&quot;:&quot;elbowEdgeStyle&quot;,&quot;elbow&quot;:&quot;vertical&quot;,&quot;curved&quot;:0,&quot;rounded&quot;:0};size=65;fontStyle=1;strokeWidth=3;" vertex="1" parent="1">
          <mxGeometry x="2027" y="45" width="150" height="3250" as="geometry" />
        </mxCell>
        <mxCell id="ZMhzhqFESCD0y0pfr6QD-14" value="alt" style="shape=umlFrame;dashed=1;pointerEvents=0;dropTarget=0;strokeColor=#B3B3B3;height=20;width=30;fontStyle=1;strokeWidth=3;" vertex="1" parent="1">
          <mxGeometry x="89" y="293" width="1424" height="282" as="geometry" />
        </mxCell>
        <mxCell id="ZMhzhqFESCD0y0pfr6QD-15" value="[approved]" style="text;strokeColor=none;fillColor=none;align=center;verticalAlign=middle;whiteSpace=wrap;fontStyle=1;strokeWidth=3;" vertex="1" parent="ZMhzhqFESCD0y0pfr6QD-14">
          <mxGeometry x="30" width="1394" height="20" as="geometry" />
        </mxCell>
        <mxCell id="ZMhzhqFESCD0y0pfr6QD-16" value="[rejected]" style="shape=line;dashed=1;whiteSpace=wrap;verticalAlign=top;labelPosition=center;verticalLabelPosition=middle;align=center;strokeColor=#B3B3B3;fontStyle=1;strokeWidth=3;" vertex="1" parent="ZMhzhqFESCD0y0pfr6QD-14">
          <mxGeometry y="146" width="1424" height="4" as="geometry" />
        </mxCell>
        <mxCell id="ZMhzhqFESCD0y0pfr6QD-17" value="alt" style="shape=umlFrame;dashed=1;pointerEvents=0;dropTarget=0;strokeColor=#B3B3B3;height=20;width=30;fontStyle=1;strokeWidth=3;" vertex="1" parent="1">
          <mxGeometry x="89" y="681" width="1624" height="567" as="geometry" />
        </mxCell>
        <mxCell id="ZMhzhqFESCD0y0pfr6QD-18" value="[notApproved]" style="text;strokeColor=none;fillColor=none;align=center;verticalAlign=middle;whiteSpace=wrap;fontStyle=1;strokeWidth=3;" vertex="1" parent="ZMhzhqFESCD0y0pfr6QD-17">
          <mxGeometry x="30" width="1594" height="20" as="geometry" />
        </mxCell>
        <mxCell id="ZMhzhqFESCD0y0pfr6QD-19" value="[exceedsLimit]" style="shape=line;dashed=1;whiteSpace=wrap;verticalAlign=top;labelPosition=center;verticalLabelPosition=middle;align=center;strokeColor=#B3B3B3;fontStyle=1;strokeWidth=3;" vertex="1" parent="ZMhzhqFESCD0y0pfr6QD-17">
          <mxGeometry y="98" width="1624" height="4" as="geometry" />
        </mxCell>
        <mxCell id="ZMhzhqFESCD0y0pfr6QD-20" value="[valid]" style="shape=line;dashed=1;whiteSpace=wrap;verticalAlign=top;labelPosition=center;verticalLabelPosition=middle;align=center;strokeColor=#B3B3B3;fontStyle=1;strokeWidth=3;" vertex="1" parent="ZMhzhqFESCD0y0pfr6QD-17">
          <mxGeometry y="191" width="1624" height="4" as="geometry" />
        </mxCell>
        <mxCell id="ZMhzhqFESCD0y0pfr6QD-21" value="alt" style="shape=umlFrame;dashed=1;pointerEvents=0;dropTarget=0;strokeColor=#B3B3B3;height=20;width=30;fontStyle=1;strokeWidth=3;" vertex="1" parent="1">
          <mxGeometry x="289" y="1450" width="1824" height="474" as="geometry" />
        </mxCell>
        <mxCell id="ZMhzhqFESCD0y0pfr6QD-22" value="[studentEligible]" style="text;strokeColor=none;fillColor=none;align=center;verticalAlign=middle;whiteSpace=wrap;fontStyle=1;strokeWidth=3;" vertex="1" parent="ZMhzhqFESCD0y0pfr6QD-21">
          <mxGeometry x="30" width="1794" height="20" as="geometry" />
        </mxCell>
        <mxCell id="ZMhzhqFESCD0y0pfr6QD-23" value="[ineligible]" style="shape=line;dashed=1;whiteSpace=wrap;verticalAlign=top;labelPosition=center;verticalLabelPosition=middle;align=center;strokeColor=#B3B3B3;fontStyle=1;strokeWidth=3;" vertex="1" parent="ZMhzhqFESCD0y0pfr6QD-21">
          <mxGeometry y="386" width="1824" height="4" as="geometry" />
        </mxCell>
        <mxCell id="ZMhzhqFESCD0y0pfr6QD-24" value="alt" style="shape=umlFrame;dashed=1;pointerEvents=0;dropTarget=0;strokeColor=#B3B3B3;height=20;width=30;fontStyle=1;strokeWidth=3;" vertex="1" parent="1">
          <mxGeometry x="89" y="2126" width="1824" height="330" as="geometry" />
        </mxCell>
        <mxCell id="ZMhzhqFESCD0y0pfr6QD-25" value="[applicationsExist]" style="text;strokeColor=none;fillColor=none;align=center;verticalAlign=middle;whiteSpace=wrap;fontStyle=1;strokeWidth=3;" vertex="1" parent="ZMhzhqFESCD0y0pfr6QD-24">
          <mxGeometry x="30" width="1794" height="20" as="geometry" />
        </mxCell>
        <mxCell id="ZMhzhqFESCD0y0pfr6QD-26" value="[noApplications]" style="shape=line;dashed=1;whiteSpace=wrap;verticalAlign=top;labelPosition=center;verticalLabelPosition=middle;align=center;strokeColor=#B3B3B3;fontStyle=1;strokeWidth=3;" vertex="1" parent="ZMhzhqFESCD0y0pfr6QD-24">
          <mxGeometry y="242" width="1824" height="4" as="geometry" />
        </mxCell>
        <mxCell id="ZMhzhqFESCD0y0pfr6QD-27" value="alt" style="shape=umlFrame;dashed=1;pointerEvents=0;dropTarget=0;strokeColor=#B3B3B3;height=20;width=30;fontStyle=1;strokeWidth=3;" vertex="1" parent="1">
          <mxGeometry x="813" y="2799" width="900" height="93" as="geometry" />
        </mxCell>
        <mxCell id="ZMhzhqFESCD0y0pfr6QD-28" value="[allSlotsFilled]" style="text;strokeColor=none;fillColor=none;align=center;verticalAlign=middle;whiteSpace=wrap;fontStyle=1;strokeWidth=3;" vertex="1" parent="ZMhzhqFESCD0y0pfr6QD-27">
          <mxGeometry x="30" width="870" height="20" as="geometry" />
        </mxCell>
        <mxCell id="ZMhzhqFESCD0y0pfr6QD-29" value="opt" style="shape=umlFrame;dashed=1;pointerEvents=0;dropTarget=0;strokeColor=#B3B3B3;height=20;width=30;fontStyle=1;strokeWidth=3;" vertex="1" parent="1">
          <mxGeometry x="289" y="2610" width="1434" height="340" as="geometry" />
        </mxCell>
        <mxCell id="ZMhzhqFESCD0y0pfr6QD-30" value="[Student accepts placement]" style="text;strokeColor=none;fillColor=none;align=center;verticalAlign=middle;whiteSpace=wrap;fontStyle=1;strokeWidth=3;" vertex="1" parent="ZMhzhqFESCD0y0pfr6QD-29">
          <mxGeometry x="30" width="1404" height="20" as="geometry" />
        </mxCell>
        <mxCell id="ZMhzhqFESCD0y0pfr6QD-31" value="inputRegistrationDetails()" style="verticalAlign=bottom;edgeStyle=elbowEdgeStyle;elbow=vertical;curved=0;rounded=0;endArrow=block;fontStyle=1;strokeWidth=3;" edge="1" parent="1" source="ZMhzhqFESCD0y0pfr6QD-4" target="ZMhzhqFESCD0y0pfr6QD-9">
          <mxGeometry relative="1" as="geometry">
            <Array as="points">
              <mxPoint x="699" y="177" />
            </Array>
          </mxGeometry>
        </mxCell>
        <mxCell id="ZMhzhqFESCD0y0pfr6QD-32" value="requestRegistration(this)" style="verticalAlign=bottom;edgeStyle=elbowEdgeStyle;elbow=vertical;curved=0;rounded=0;endArrow=block;fontStyle=1;strokeWidth=3;" edge="1" parent="1" source="ZMhzhqFESCD0y0pfr6QD-9" target="ZMhzhqFESCD0y0pfr6QD-6">
          <mxGeometry relative="1" as="geometry">
            <Array as="points">
              <mxPoint x="920" y="225" />
            </Array>
          </mxGeometry>
        </mxCell>
        <mxCell id="ZMhzhqFESCD0y0pfr6QD-33" value="addPendingCompany(this)" style="verticalAlign=bottom;edgeStyle=elbowEdgeStyle;elbow=vertical;curved=0;rounded=0;endArrow=block;fontStyle=1;strokeWidth=3;" edge="1" parent="1" source="ZMhzhqFESCD0y0pfr6QD-6" target="ZMhzhqFESCD0y0pfr6QD-10">
          <mxGeometry relative="1" as="geometry">
            <Array as="points">
              <mxPoint x="1027" y="273" />
            </Array>
          </mxGeometry>
        </mxCell>
        <mxCell id="ZMhzhqFESCD0y0pfr6QD-34" value="approveAccount()" style="verticalAlign=bottom;edgeStyle=elbowEdgeStyle;elbow=vertical;curved=0;rounded=0;dashed=1;dashPattern=2 3;endArrow=block;fontStyle=1;strokeWidth=3;" edge="1" parent="1" source="ZMhzhqFESCD0y0pfr6QD-10" target="ZMhzhqFESCD0y0pfr6QD-6">
          <mxGeometry relative="1" as="geometry">
            <Array as="points">
              <mxPoint x="1030" y="366" />
            </Array>
          </mxGeometry>
        </mxCell>
        <mxCell id="ZMhzhqFESCD0y0pfr6QD-35" value="showMessage(&quot;Account approved&quot;)" style="verticalAlign=bottom;edgeStyle=elbowEdgeStyle;elbow=vertical;curved=0;rounded=0;dashed=1;dashPattern=2 3;endArrow=block;fontStyle=1;strokeWidth=3;" edge="1" parent="1" source="ZMhzhqFESCD0y0pfr6QD-6" target="ZMhzhqFESCD0y0pfr6QD-4">
          <mxGeometry relative="1" as="geometry">
            <Array as="points">
              <mxPoint x="329" y="414" />
            </Array>
          </mxGeometry>
        </mxCell>
        <mxCell id="ZMhzhqFESCD0y0pfr6QD-36" value="rejectAccount()" style="verticalAlign=bottom;edgeStyle=elbowEdgeStyle;elbow=vertical;curved=0;rounded=0;dashed=1;dashPattern=2 3;endArrow=block;fontStyle=1;strokeWidth=3;" edge="1" parent="1" source="ZMhzhqFESCD0y0pfr6QD-10" target="ZMhzhqFESCD0y0pfr6QD-6">
          <mxGeometry relative="1" as="geometry">
            <Array as="points">
              <mxPoint x="1030" y="507" />
            </Array>
          </mxGeometry>
        </mxCell>
        <mxCell id="ZMhzhqFESCD0y0pfr6QD-37" value="showMessage(&quot;Account rejected&quot;)" style="verticalAlign=bottom;edgeStyle=elbowEdgeStyle;elbow=vertical;curved=0;rounded=0;dashed=1;dashPattern=2 3;endArrow=block;fontStyle=1;strokeWidth=3;" edge="1" parent="1" source="ZMhzhqFESCD0y0pfr6QD-6" target="ZMhzhqFESCD0y0pfr6QD-4">
          <mxGeometry relative="1" as="geometry">
            <Array as="points">
              <mxPoint x="329" y="555" />
            </Array>
          </mxGeometry>
        </mxCell>
        <mxCell id="ZMhzhqFESCD0y0pfr6QD-38" value="createInternshipRequest(title, desc, level, major, open, close, slots)" style="verticalAlign=bottom;edgeStyle=elbowEdgeStyle;elbow=vertical;curved=0;rounded=0;endArrow=block;fontStyle=1;strokeWidth=3;" edge="1" parent="1" source="ZMhzhqFESCD0y0pfr6QD-4" target="ZMhzhqFESCD0y0pfr6QD-7">
          <mxGeometry relative="1" as="geometry">
            <Array as="points">
              <mxPoint x="470" y="613" />
            </Array>
          </mxGeometry>
        </mxCell>
        <mxCell id="ZMhzhqFESCD0y0pfr6QD-39" value="validateCreationPrivileges()" style="verticalAlign=bottom;edgeStyle=elbowEdgeStyle;elbow=vertical;curved=0;rounded=0;endArrow=block;fontStyle=1;strokeWidth=3;" edge="1" parent="1" source="ZMhzhqFESCD0y0pfr6QD-7" target="ZMhzhqFESCD0y0pfr6QD-9">
          <mxGeometry relative="1" as="geometry">
            <Array as="points">
              <mxPoint x="1061" y="661" />
            </Array>
          </mxGeometry>
        </mxCell>
        <mxCell id="ZMhzhqFESCD0y0pfr6QD-40" value="showError(&quot;Account not approved by Career Center yet!&quot;)" style="verticalAlign=bottom;edgeStyle=elbowEdgeStyle;elbow=vertical;curved=0;rounded=0;dashed=1;dashPattern=2 3;endArrow=block;fontStyle=1;strokeWidth=3;" edge="1" parent="1" source="ZMhzhqFESCD0y0pfr6QD-7" target="ZMhzhqFESCD0y0pfr6QD-4">
          <mxGeometry relative="1" as="geometry">
            <Array as="points">
              <mxPoint x="473" y="754" />
            </Array>
          </mxGeometry>
        </mxCell>
        <mxCell id="ZMhzhqFESCD0y0pfr6QD-41" value="showError(&quot;You cannot create more than 5 internships.&quot;)" style="verticalAlign=bottom;edgeStyle=elbowEdgeStyle;elbow=vertical;curved=0;rounded=0;dashed=1;dashPattern=2 3;endArrow=block;fontStyle=1;strokeWidth=3;" edge="1" parent="1" source="ZMhzhqFESCD0y0pfr6QD-7" target="ZMhzhqFESCD0y0pfr6QD-4">
          <mxGeometry relative="1" as="geometry">
            <Array as="points">
              <mxPoint x="473" y="847" />
            </Array>
          </mxGeometry>
        </mxCell>
        <mxCell id="ZMhzhqFESCD0y0pfr6QD-42" value="new Internship(..., companyName, this, slots)" style="verticalAlign=bottom;edgeStyle=elbowEdgeStyle;elbow=vertical;curved=0;rounded=0;endArrow=block;fontStyle=1;strokeWidth=3;" edge="1" parent="1" source="ZMhzhqFESCD0y0pfr6QD-7" target="ZMhzhqFESCD0y0pfr6QD-11">
          <mxGeometry relative="1" as="geometry">
            <Array as="points">
              <mxPoint x="1271" y="940" />
            </Array>
          </mxGeometry>
        </mxCell>
        <mxCell id="ZMhzhqFESCD0y0pfr6QD-43" value="status=&quot;Pending&quot;" style="verticalAlign=bottom;edgeStyle=elbowEdgeStyle;elbow=vertical;curved=0;rounded=0;dashed=1;dashPattern=2 3;endArrow=block;fontStyle=1;strokeWidth=3;" edge="1" parent="1" source="ZMhzhqFESCD0y0pfr6QD-11" target="ZMhzhqFESCD0y0pfr6QD-7">
          <mxGeometry relative="1" as="geometry">
            <Array as="points">
              <mxPoint x="1274" y="988" />
            </Array>
          </mxGeometry>
        </mxCell>
        <mxCell id="ZMhzhqFESCD0y0pfr6QD-44" value="submitInternshipForApproval(I)" style="verticalAlign=bottom;edgeStyle=elbowEdgeStyle;elbow=vertical;curved=0;rounded=0;endArrow=block;fontStyle=1;strokeWidth=3;" edge="1" parent="1" source="ZMhzhqFESCD0y0pfr6QD-7" target="ZMhzhqFESCD0y0pfr6QD-6">
          <mxGeometry relative="1" as="geometry">
            <Array as="points">
              <mxPoint x="691" y="1036" />
            </Array>
          </mxGeometry>
        </mxCell>
        <mxCell id="ZMhzhqFESCD0y0pfr6QD-45" value="approveInternship(I)" style="verticalAlign=bottom;edgeStyle=elbowEdgeStyle;elbow=vertical;curved=0;rounded=0;endArrow=block;fontStyle=1;strokeWidth=3;" edge="1" parent="1" source="ZMhzhqFESCD0y0pfr6QD-6" target="ZMhzhqFESCD0y0pfr6QD-10">
          <mxGeometry relative="1" as="geometry">
            <Array as="points">
              <mxPoint x="1027" y="1084" />
            </Array>
          </mxGeometry>
        </mxCell>
        <mxCell id="ZMhzhqFESCD0y0pfr6QD-46" value="internshipApproved()" style="verticalAlign=bottom;edgeStyle=elbowEdgeStyle;elbow=vertical;curved=0;rounded=0;dashed=1;dashPattern=2 3;endArrow=block;fontStyle=1;strokeWidth=3;" edge="1" parent="1" source="ZMhzhqFESCD0y0pfr6QD-10" target="ZMhzhqFESCD0y0pfr6QD-6">
          <mxGeometry relative="1" as="geometry">
            <Array as="points">
              <mxPoint x="1030" y="1132" />
            </Array>
          </mxGeometry>
        </mxCell>
        <mxCell id="ZMhzhqFESCD0y0pfr6QD-47" value="setStatus(&quot;Approved&quot;), setVisible(true)" style="verticalAlign=bottom;edgeStyle=elbowEdgeStyle;elbow=vertical;curved=0;rounded=0;dashed=1;dashPattern=2 3;endArrow=block;fontStyle=1;strokeWidth=3;" edge="1" parent="1" source="ZMhzhqFESCD0y0pfr6QD-6" target="ZMhzhqFESCD0y0pfr6QD-11">
          <mxGeometry relative="1" as="geometry">
            <Array as="points">
              <mxPoint x="1127" y="1180" />
            </Array>
          </mxGeometry>
        </mxCell>
        <mxCell id="ZMhzhqFESCD0y0pfr6QD-48" value="showMessage(&quot;Internship approved and visible to students.&quot;)" style="verticalAlign=bottom;edgeStyle=elbowEdgeStyle;elbow=vertical;curved=0;rounded=0;dashed=1;dashPattern=2 3;endArrow=block;fontStyle=1;strokeWidth=3;" edge="1" parent="1" source="ZMhzhqFESCD0y0pfr6QD-7" target="ZMhzhqFESCD0y0pfr6QD-4">
          <mxGeometry relative="1" as="geometry">
            <Array as="points">
              <mxPoint x="473" y="1228" />
            </Array>
          </mxGeometry>
        </mxCell>
        <mxCell id="ZMhzhqFESCD0y0pfr6QD-49" value="viewAvailableInternships()" style="verticalAlign=bottom;edgeStyle=elbowEdgeStyle;elbow=vertical;curved=0;rounded=0;endArrow=block;fontStyle=1;strokeWidth=3;" edge="1" parent="1" source="ZMhzhqFESCD0y0pfr6QD-5" target="ZMhzhqFESCD0y0pfr6QD-7">
          <mxGeometry relative="1" as="geometry">
            <Array as="points">
              <mxPoint x="570" y="1286" />
            </Array>
          </mxGeometry>
        </mxCell>
        <mxCell id="ZMhzhqFESCD0y0pfr6QD-50" value="filterVisibleAndEligible(S)" style="verticalAlign=bottom;edgeStyle=elbowEdgeStyle;elbow=vertical;curved=0;rounded=0;endArrow=block;fontStyle=1;strokeWidth=3;" edge="1" parent="1" source="ZMhzhqFESCD0y0pfr6QD-7" target="ZMhzhqFESCD0y0pfr6QD-11">
          <mxGeometry relative="1" as="geometry">
            <Array as="points">
              <mxPoint x="1271" y="1334" />
            </Array>
          </mxGeometry>
        </mxCell>
        <mxCell id="ZMhzhqFESCD0y0pfr6QD-51" value="listOfEligibleInternships" style="verticalAlign=bottom;edgeStyle=elbowEdgeStyle;elbow=vertical;curved=0;rounded=0;dashed=1;dashPattern=2 3;endArrow=block;fontStyle=1;strokeWidth=3;" edge="1" parent="1" source="ZMhzhqFESCD0y0pfr6QD-11" target="ZMhzhqFESCD0y0pfr6QD-7">
          <mxGeometry relative="1" as="geometry">
            <Array as="points">
              <mxPoint x="1274" y="1382" />
            </Array>
          </mxGeometry>
        </mxCell>
        <mxCell id="ZMhzhqFESCD0y0pfr6QD-52" value="displayInternshipList()" style="verticalAlign=bottom;edgeStyle=elbowEdgeStyle;elbow=vertical;curved=0;rounded=0;dashed=1;dashPattern=2 3;endArrow=block;fontStyle=1;strokeWidth=3;" edge="1" parent="1" source="ZMhzhqFESCD0y0pfr6QD-7" target="ZMhzhqFESCD0y0pfr6QD-5">
          <mxGeometry relative="1" as="geometry">
            <Array as="points">
              <mxPoint x="573" y="1430" />
            </Array>
          </mxGeometry>
        </mxCell>
        <mxCell id="ZMhzhqFESCD0y0pfr6QD-53" value="applyForInternship(selectedInternship)" style="verticalAlign=bottom;edgeStyle=elbowEdgeStyle;elbow=vertical;curved=0;rounded=0;endArrow=block;fontStyle=1;strokeWidth=3;" edge="1" parent="1" source="ZMhzhqFESCD0y0pfr6QD-5" target="ZMhzhqFESCD0y0pfr6QD-8">
          <mxGeometry relative="1" as="geometry">
            <Array as="points">
              <mxPoint x="676" y="1523" />
            </Array>
          </mxGeometry>
        </mxCell>
        <mxCell id="ZMhzhqFESCD0y0pfr6QD-54" value="createApplication(selectedInternship)" style="verticalAlign=bottom;edgeStyle=elbowEdgeStyle;elbow=vertical;curved=0;rounded=0;endArrow=block;fontStyle=1;strokeWidth=3;" edge="1" parent="1" source="ZMhzhqFESCD0y0pfr6QD-8" target="ZMhzhqFESCD0y0pfr6QD-13">
          <mxGeometry relative="1" as="geometry">
            <Array as="points">
              <mxPoint x="1576" y="1571" />
            </Array>
          </mxGeometry>
        </mxCell>
        <mxCell id="ZMhzhqFESCD0y0pfr6QD-55" value="new Application(S, selectedInternship)" style="verticalAlign=bottom;edgeStyle=elbowEdgeStyle;elbow=vertical;curved=0;rounded=0;endArrow=block;fontStyle=1;strokeWidth=3;" edge="1" parent="1" source="ZMhzhqFESCD0y0pfr6QD-8" target="ZMhzhqFESCD0y0pfr6QD-12">
          <mxGeometry relative="1" as="geometry">
            <Array as="points">
              <mxPoint x="1476" y="1619" />
            </Array>
          </mxGeometry>
        </mxCell>
        <mxCell id="ZMhzhqFESCD0y0pfr6QD-56" value="status=&quot;Pending&quot;" style="verticalAlign=bottom;edgeStyle=elbowEdgeStyle;elbow=vertical;curved=0;rounded=0;dashed=1;dashPattern=2 3;endArrow=block;fontStyle=1;strokeWidth=3;" edge="1" parent="1" source="ZMhzhqFESCD0y0pfr6QD-12" target="ZMhzhqFESCD0y0pfr6QD-8">
          <mxGeometry relative="1" as="geometry">
            <Array as="points">
              <mxPoint x="1479" y="1667" />
            </Array>
          </mxGeometry>
        </mxCell>
        <mxCell id="ZMhzhqFESCD0y0pfr6QD-57" value="addApplication(A)" style="verticalAlign=bottom;edgeStyle=elbowEdgeStyle;elbow=vertical;curved=0;rounded=0;endArrow=block;fontStyle=1;strokeWidth=3;" edge="1" parent="1" source="ZMhzhqFESCD0y0pfr6QD-8" target="ZMhzhqFESCD0y0pfr6QD-11">
          <mxGeometry relative="1" as="geometry">
            <Array as="points">
              <mxPoint x="1376" y="1715" />
            </Array>
          </mxGeometry>
        </mxCell>
        <mxCell id="ZMhzhqFESCD0y0pfr6QD-58" value="confirmAdded()" style="verticalAlign=bottom;edgeStyle=elbowEdgeStyle;elbow=vertical;curved=0;rounded=0;dashed=1;dashPattern=2 3;endArrow=block;fontStyle=1;strokeWidth=3;" edge="1" parent="1" source="ZMhzhqFESCD0y0pfr6QD-11" target="ZMhzhqFESCD0y0pfr6QD-8">
          <mxGeometry relative="1" as="geometry">
            <Array as="points">
              <mxPoint x="1379" y="1763" />
            </Array>
          </mxGeometry>
        </mxCell>
        <mxCell id="ZMhzhqFESCD0y0pfr6QD-59" value="showMessage(&quot;Application submitted successfully.&quot;)" style="verticalAlign=bottom;edgeStyle=elbowEdgeStyle;elbow=vertical;curved=0;rounded=0;dashed=1;dashPattern=2 3;endArrow=block;fontStyle=1;strokeWidth=3;" edge="1" parent="1" source="ZMhzhqFESCD0y0pfr6QD-8" target="ZMhzhqFESCD0y0pfr6QD-5">
          <mxGeometry relative="1" as="geometry">
            <Array as="points">
              <mxPoint x="679" y="1811" />
            </Array>
          </mxGeometry>
        </mxCell>
        <mxCell id="ZMhzhqFESCD0y0pfr6QD-60" value="showError(&quot;Not eligible or internship not visible.&quot;)" style="verticalAlign=bottom;edgeStyle=elbowEdgeStyle;elbow=vertical;curved=0;rounded=0;dashed=1;dashPattern=2 3;endArrow=block;fontStyle=1;strokeWidth=3;" edge="1" parent="1" source="ZMhzhqFESCD0y0pfr6QD-8" target="ZMhzhqFESCD0y0pfr6QD-5">
          <mxGeometry relative="1" as="geometry">
            <Array as="points">
              <mxPoint x="679" y="1904" />
            </Array>
          </mxGeometry>
        </mxCell>
        <mxCell id="ZMhzhqFESCD0y0pfr6QD-61" value="viewApplicationsForInternship(I)" style="verticalAlign=bottom;edgeStyle=elbowEdgeStyle;elbow=vertical;curved=0;rounded=0;endArrow=block;fontStyle=1;strokeWidth=3;" edge="1" parent="1" source="ZMhzhqFESCD0y0pfr6QD-4" target="ZMhzhqFESCD0y0pfr6QD-8">
          <mxGeometry relative="1" as="geometry">
            <Array as="points">
              <mxPoint x="576" y="1962" />
            </Array>
          </mxGeometry>
        </mxCell>
        <mxCell id="ZMhzhqFESCD0y0pfr6QD-62" value="getApplications()" style="verticalAlign=bottom;edgeStyle=elbowEdgeStyle;elbow=vertical;curved=0;rounded=0;endArrow=block;fontStyle=1;strokeWidth=3;" edge="1" parent="1" source="ZMhzhqFESCD0y0pfr6QD-8" target="ZMhzhqFESCD0y0pfr6QD-11">
          <mxGeometry relative="1" as="geometry">
            <Array as="points">
              <mxPoint x="1376" y="2010" />
            </Array>
          </mxGeometry>
        </mxCell>
        <mxCell id="ZMhzhqFESCD0y0pfr6QD-63" value="list of Applications" style="verticalAlign=bottom;edgeStyle=elbowEdgeStyle;elbow=vertical;curved=0;rounded=0;dashed=1;dashPattern=2 3;endArrow=block;fontStyle=1;strokeWidth=3;" edge="1" parent="1" source="ZMhzhqFESCD0y0pfr6QD-11" target="ZMhzhqFESCD0y0pfr6QD-8">
          <mxGeometry relative="1" as="geometry">
            <Array as="points">
              <mxPoint x="1379" y="2058" />
            </Array>
          </mxGeometry>
        </mxCell>
        <mxCell id="ZMhzhqFESCD0y0pfr6QD-64" value="displayApplications(list)" style="verticalAlign=bottom;edgeStyle=elbowEdgeStyle;elbow=vertical;curved=0;rounded=0;dashed=1;dashPattern=2 3;endArrow=block;fontStyle=1;strokeWidth=3;" edge="1" parent="1" source="ZMhzhqFESCD0y0pfr6QD-8" target="ZMhzhqFESCD0y0pfr6QD-4">
          <mxGeometry relative="1" as="geometry">
            <Array as="points">
              <mxPoint x="579" y="2106" />
            </Array>
          </mxGeometry>
        </mxCell>
        <mxCell id="ZMhzhqFESCD0y0pfr6QD-65" value="approveApplication(app)" style="verticalAlign=bottom;edgeStyle=elbowEdgeStyle;elbow=vertical;curved=0;rounded=0;endArrow=block;fontStyle=1;strokeWidth=3;" edge="1" parent="1" source="ZMhzhqFESCD0y0pfr6QD-4" target="ZMhzhqFESCD0y0pfr6QD-8">
          <mxGeometry relative="1" as="geometry">
            <Array as="points">
              <mxPoint x="576" y="2199" />
            </Array>
          </mxGeometry>
        </mxCell>
        <mxCell id="ZMhzhqFESCD0y0pfr6QD-66" value="setStatus(&quot;Successful&quot;)" style="verticalAlign=bottom;edgeStyle=elbowEdgeStyle;elbow=vertical;curved=0;rounded=0;endArrow=block;fontStyle=1;strokeWidth=3;" edge="1" parent="1" source="ZMhzhqFESCD0y0pfr6QD-8" target="ZMhzhqFESCD0y0pfr6QD-12">
          <mxGeometry relative="1" as="geometry">
            <Array as="points">
              <mxPoint x="1476" y="2247" />
            </Array>
          </mxGeometry>
        </mxCell>
        <mxCell id="ZMhzhqFESCD0y0pfr6QD-67" value="status updated" style="verticalAlign=bottom;edgeStyle=elbowEdgeStyle;elbow=vertical;curved=0;rounded=0;dashed=1;dashPattern=2 3;endArrow=block;fontStyle=1;strokeWidth=3;" edge="1" parent="1" source="ZMhzhqFESCD0y0pfr6QD-12" target="ZMhzhqFESCD0y0pfr6QD-8">
          <mxGeometry relative="1" as="geometry">
            <Array as="points">
              <mxPoint x="1479" y="2295" />
            </Array>
          </mxGeometry>
        </mxCell>
        <mxCell id="ZMhzhqFESCD0y0pfr6QD-68" value="showMessage(&quot;Application approved.&quot;)" style="verticalAlign=bottom;edgeStyle=elbowEdgeStyle;elbow=vertical;curved=0;rounded=0;dashed=1;dashPattern=2 3;endArrow=block;fontStyle=1;strokeWidth=3;" edge="1" parent="1" source="ZMhzhqFESCD0y0pfr6QD-8" target="ZMhzhqFESCD0y0pfr6QD-4">
          <mxGeometry relative="1" as="geometry">
            <Array as="points">
              <mxPoint x="579" y="2343" />
            </Array>
          </mxGeometry>
        </mxCell>
        <mxCell id="ZMhzhqFESCD0y0pfr6QD-69" value="showMessage(&quot;No applications yet.&quot;)" style="verticalAlign=bottom;edgeStyle=elbowEdgeStyle;elbow=vertical;curved=0;rounded=0;dashed=1;dashPattern=2 3;endArrow=block;fontStyle=1;strokeWidth=3;" edge="1" parent="1" source="ZMhzhqFESCD0y0pfr6QD-8" target="ZMhzhqFESCD0y0pfr6QD-4">
          <mxGeometry relative="1" as="geometry">
            <Array as="points">
              <mxPoint x="579" y="2436" />
            </Array>
          </mxGeometry>
        </mxCell>
        <mxCell id="ZMhzhqFESCD0y0pfr6QD-70" value="viewApplicationStatus()" style="verticalAlign=bottom;edgeStyle=elbowEdgeStyle;elbow=vertical;curved=0;rounded=0;endArrow=block;fontStyle=1;strokeWidth=3;" edge="1" parent="1" source="ZMhzhqFESCD0y0pfr6QD-5" target="ZMhzhqFESCD0y0pfr6QD-8">
          <mxGeometry relative="1" as="geometry">
            <Array as="points">
              <mxPoint x="676" y="2494" />
            </Array>
          </mxGeometry>
        </mxCell>
        <mxCell id="ZMhzhqFESCD0y0pfr6QD-71" value="getStatus()" style="verticalAlign=bottom;edgeStyle=elbowEdgeStyle;elbow=vertical;curved=0;rounded=0;endArrow=block;fontStyle=1;strokeWidth=3;" edge="1" parent="1" source="ZMhzhqFESCD0y0pfr6QD-8" target="ZMhzhqFESCD0y0pfr6QD-12">
          <mxGeometry relative="1" as="geometry">
            <Array as="points">
              <mxPoint x="1476" y="2542" />
            </Array>
          </mxGeometry>
        </mxCell>
        <mxCell id="ZMhzhqFESCD0y0pfr6QD-72" value="&quot;Successful&quot;" style="verticalAlign=bottom;edgeStyle=elbowEdgeStyle;elbow=vertical;curved=0;rounded=0;dashed=1;dashPattern=2 3;endArrow=block;fontStyle=1;strokeWidth=3;" edge="1" parent="1" source="ZMhzhqFESCD0y0pfr6QD-12" target="ZMhzhqFESCD0y0pfr6QD-8">
          <mxGeometry relative="1" as="geometry">
            <Array as="points">
              <mxPoint x="1479" y="2590" />
            </Array>
          </mxGeometry>
        </mxCell>
        <mxCell id="ZMhzhqFESCD0y0pfr6QD-73" value="acceptPlacement()" style="verticalAlign=bottom;edgeStyle=elbowEdgeStyle;elbow=vertical;curved=0;rounded=0;endArrow=block;fontStyle=1;strokeWidth=3;" edge="1" parent="1" source="ZMhzhqFESCD0y0pfr6QD-5" target="ZMhzhqFESCD0y0pfr6QD-8">
          <mxGeometry relative="1" as="geometry">
            <Array as="points">
              <mxPoint x="676" y="2683" />
            </Array>
          </mxGeometry>
        </mxCell>
        <mxCell id="ZMhzhqFESCD0y0pfr6QD-74" value="confirmPlacement(S)" style="verticalAlign=bottom;edgeStyle=elbowEdgeStyle;elbow=vertical;curved=0;rounded=0;endArrow=block;fontStyle=1;strokeWidth=3;" edge="1" parent="1" source="ZMhzhqFESCD0y0pfr6QD-8" target="ZMhzhqFESCD0y0pfr6QD-11">
          <mxGeometry relative="1" as="geometry">
            <Array as="points">
              <mxPoint x="1376" y="2731" />
            </Array>
          </mxGeometry>
        </mxCell>
        <mxCell id="ZMhzhqFESCD0y0pfr6QD-75" value="updateSlotAvailability()" style="verticalAlign=bottom;edgeStyle=elbowEdgeStyle;elbow=vertical;curved=0;rounded=0;dashed=1;dashPattern=2 3;endArrow=block;fontStyle=1;strokeWidth=3;" edge="1" parent="1" source="ZMhzhqFESCD0y0pfr6QD-11" target="ZMhzhqFESCD0y0pfr6QD-8">
          <mxGeometry relative="1" as="geometry">
            <Array as="points">
              <mxPoint x="1379" y="2779" />
            </Array>
          </mxGeometry>
        </mxCell>
        <mxCell id="ZMhzhqFESCD0y0pfr6QD-76" value="setStatus(&quot;Filled&quot;)" style="verticalAlign=bottom;edgeStyle=elbowEdgeStyle;elbow=vertical;curved=0;rounded=0;dashed=1;dashPattern=2 3;endArrow=block;fontStyle=1;strokeWidth=3;" edge="1" parent="1" source="ZMhzhqFESCD0y0pfr6QD-11" target="ZMhzhqFESCD0y0pfr6QD-7">
          <mxGeometry relative="1" as="geometry">
            <Array as="points">
              <mxPoint x="1274" y="2872" />
            </Array>
          </mxGeometry>
        </mxCell>
        <mxCell id="ZMhzhqFESCD0y0pfr6QD-77" value="showMessage(&quot;Placement confirmed.&quot;)" style="verticalAlign=bottom;edgeStyle=elbowEdgeStyle;elbow=vertical;curved=0;rounded=0;dashed=1;dashPattern=2 3;endArrow=block;fontStyle=1;strokeWidth=3;" edge="1" parent="1" source="ZMhzhqFESCD0y0pfr6QD-8" target="ZMhzhqFESCD0y0pfr6QD-5">
          <mxGeometry relative="1" as="geometry">
            <Array as="points">
              <mxPoint x="679" y="2930" />
            </Array>
          </mxGeometry>
        </mxCell>
        <mxCell id="ZMhzhqFESCD0y0pfr6QD-78" value="generateReports(filterByStatus)" style="verticalAlign=bottom;edgeStyle=elbowEdgeStyle;elbow=vertical;curved=0;rounded=0;endArrow=block;fontStyle=1;strokeWidth=3;" edge="1" parent="1" source="ZMhzhqFESCD0y0pfr6QD-6" target="ZMhzhqFESCD0y0pfr6QD-7">
          <mxGeometry relative="1" as="geometry">
            <Array as="points">
              <mxPoint x="688" y="2988" />
            </Array>
          </mxGeometry>
        </mxCell>
        <mxCell id="ZMhzhqFESCD0y0pfr6QD-79" value="getInternshipStatistics()" style="verticalAlign=bottom;edgeStyle=elbowEdgeStyle;elbow=vertical;curved=0;rounded=0;endArrow=block;fontStyle=1;strokeWidth=3;" edge="1" parent="1" source="ZMhzhqFESCD0y0pfr6QD-7" target="ZMhzhqFESCD0y0pfr6QD-11">
          <mxGeometry relative="1" as="geometry">
            <Array as="points">
              <mxPoint x="1271" y="3036" />
            </Array>
          </mxGeometry>
        </mxCell>
        <mxCell id="ZMhzhqFESCD0y0pfr6QD-80" value="report data" style="verticalAlign=bottom;edgeStyle=elbowEdgeStyle;elbow=vertical;curved=0;rounded=0;dashed=1;dashPattern=2 3;endArrow=block;fontStyle=1;strokeWidth=3;" edge="1" parent="1" source="ZMhzhqFESCD0y0pfr6QD-11" target="ZMhzhqFESCD0y0pfr6QD-7">
          <mxGeometry relative="1" as="geometry">
            <Array as="points">
              <mxPoint x="1274" y="3084" />
            </Array>
          </mxGeometry>
        </mxCell>
        <mxCell id="ZMhzhqFESCD0y0pfr6QD-81" value="return filteredReport()" style="verticalAlign=bottom;edgeStyle=elbowEdgeStyle;elbow=vertical;curved=0;rounded=0;dashed=1;dashPattern=2 3;endArrow=block;fontStyle=1;strokeWidth=3;" edge="1" parent="1" source="ZMhzhqFESCD0y0pfr6QD-7" target="ZMhzhqFESCD0y0pfr6QD-6">
          <mxGeometry relative="1" as="geometry">
            <Array as="points">
              <mxPoint x="691" y="3132" />
            </Array>
          </mxGeometry>
        </mxCell>
        <mxCell id="ZMhzhqFESCD0y0pfr6QD-82" value="displayReport()" style="verticalAlign=bottom;edgeStyle=elbowEdgeStyle;elbow=vertical;curved=0;rounded=0;dashed=1;dashPattern=2 3;endArrow=block;fontStyle=1;strokeWidth=3;" edge="1" parent="1" source="ZMhzhqFESCD0y0pfr6QD-6" target="ZMhzhqFESCD0y0pfr6QD-10">
          <mxGeometry relative="1" as="geometry">
            <Array as="points">
              <mxPoint x="1027" y="3180" />
            </Array>
          </mxGeometry>
        </mxCell>
      </root>
    </mxGraphModel>
  </diagram>
</mxfile>
